<?xml version="1.0" encoding="UTF-8" standalone="no"?>
<svg
    xmlns:dc="http://purl.org/dc/elements/1.1/"
    xmlns:cc="http://creativecommons.org/ns#"
    xmlns:rdf="http://www.w3.org/1999/02/22-rdf-syntax-ns#"
    xmlns:svg="http://www.w3.org/2000/svg"
    xmlns="http://www.w3.org/2000/svg"
    xmlns:sodipodi="http://sodipodi.sourceforge.net/DTD/sodipodi-0.dtd"
    xmlns:inkscape="http://www.inkscape.org/namespaces/inkscape"
    id="svg2"
    sodipodi:docname="Load-Balancer-Yellow.svg"
    version="1.0"
    inkscape:version="0.92.2 (5c3e80d, 2017-08-06)"
    viewBox="0 0 500.000000 500.000000"
    inkscape:export-filename="/Users/duda/Creative Cloud Files/SOCKS-Proxy/Proxy-Yellow-Icon.png"
    inkscape:export-xdpi="24.576"
    inkscape:export-ydpi="24.576">
  <defs
      id="defs10" />
  <sodipodi:namedview
      id="namedview12"
      bordercolor="#666666"
      inkscape:pageshadow="2"
      guidetolerance="10"
      pagecolor="#ffffff"
      gridtolerance="10"
      inkscape:window-maximized="0"
      inkscape:zoom="1.0680141"
      objecttolerance="10"
      borderopacity="1"
      inkscape:current-layer="layer1"
      inkscape:cx="275.68409"
      inkscape:cy="257.50044"
      inkscape:window-y="22"
      inkscape:window-x="0"
      inkscape:window-width="1393"
      showgrid="false"
      inkscape:pageopacity="0"
      inkscape:window-height="856" />
  <g
      inkscape:groupmode="layer"
      id="layer1"
      inkscape:label="Layer 1">
    <rect
        style="display:inline;fill:#d69e19;fill-opacity:1;stroke:#000000;stroke-width:40.74585724;stroke-linejoin:round;stroke-miterlimit:4;stroke-dasharray:none;stroke-dashoffset:0;stroke-opacity:1"
        id="rect4755"
        width="459.25415"
        height="459.25415"
        x="20.85112"
        y="19.89472"
        rx="5.4972277"
        ry="5.4972277" />
    <path
        style="fill:#000000;fill-opacity:1;stroke:#000000;stroke-width:0;stroke-linejoin:round;stroke-miterlimit:4;stroke-dasharray:none;stroke-dashoffset:0;stroke-opacity:1"
        d="m 233.86846,429.84856 c -7.51363,-3.7546 -14.16282,-10.4587 -17.89792,-18.0458 -2.85788,-5.8052 -2.95575,-6.3927 -2.61734,-15.711 0.28231,-7.7734 0.78362,-10.5621 2.54475,-14.1561 2.8645,-5.8455 9.20811,-12.8306 15.06661,-16.59 l 4.68393,-3.0056 v -16.6715 -16.6715 l -7.09525,-2.3856 c -24.40652,-8.206 -43.43389,-29.682 -47.75449,-53.90021 -0.69518,-3.8967 -1.28049,-8.7702 -1.3007,-10.8301 l -0.0367,-3.7453 -21.29715,-7.7171 c -32.04919,-11.6131 -43.3962,-15.4392 -43.99947,-14.8359 -0.30024,0.3002 1.67331,5.4944 4.38565,11.5427 5.91426,13.1881 6.43653,15.7721 4.3122,21.3345 -4.46151,11.68241 -20.37532,13.11681 -27.112792,2.444 -2.27035,-3.5965 -21.89442,-44.9284 -26.4429,-55.6936 -4.24172,-10.0392 -3.04754,-16.0768 4.14487,-20.9558 7.50377,-5.0902 52.739112,-26.023 62.142532,-28.7567 6.01281,-1.7479 8.93625,-1.0783 13.29437,3.0451 6.02171,5.6975 7.24447,13.53 3.09182,19.8051 -1.8767,2.8359 -4.38632,4.5579 -12.16562,8.3478 -5.39064,2.6261 -10.89255,5.1897 -12.22648,5.6969 -3.66013,1.3916 -2.96815,2.5011 2.9585,4.7438 14.10108,5.3359 51.59027,18.5552 54.18738,19.1074 2.73849,0.5823 3.23203,0.2346 7.77857,-5.4791 10.18211,-12.796 25.05508,-23.4526 37.28368,-26.714 l 3.97935,-1.0613 v -33.2032 c 0,-18.2617 -0.27116,-33.2031 -0.60257,-33.2031 -0.33142,0 -4.12286,3.3796 -8.42543,7.5102 -13.64812,13.1027 -19.21075,15.3598 -26.99253,10.9524 -5.60572,-3.175 -7.98638,-7.3247 -7.98638,-13.9211 v -5.4809 l 7.91106,-8.7593 c 10.85157,-12.0149 39.15032,-39.286499 44.4208,-42.808399 5.18234,-3.463 9.50186,-3.3263 14.98626,0.4744 1.93144,1.3385 14.05868,13.0667 26.94941,26.062699 25.46058,25.6685 26.57711,27.2206 24.67187,34.2961 -1.34142,4.9816 -6.11885,9.9059 -11.04134,11.3807 -6.66309,1.9964 -9.9223,0.3618 -21.60947,-10.8373 -5.62828,-5.3932 -10.49199,-9.8059 -10.80823,-9.8059 -0.31624,0 -0.57499,15.1521 -0.57499,33.6714 v 33.6713 l 3.97935,1.0613 c 2.18864,0.5837 7.77143,3.0141 12.4062,5.4008 9.26233,4.7697 20.33525,14.4559 25.89304,22.6502 1.72304,2.5405 3.57169,4.6299 4.1081,4.6431 1.33171,0.033 21.86773,-6.959 41.15897,-14.0136 8.75457,-3.2014 17.07609,-6.2392 18.49227,-6.7507 1.41618,-0.5115 2.57487,-1.2412 2.57487,-1.6217 0,-0.3804 -4.47344,-2.7381 -9.94098,-5.2393 -5.46753,-2.5012 -11.53022,-5.6989 -13.47264,-7.106 -4.26967,-3.0929 -7.09609,-9.5567 -6.18056,-14.1343 0.9286,-4.643 4.83484,-9.8484 8.97573,-11.9609 5.85053,-2.9847 9.44593,-1.8348 43.09007,13.7812 20.6097,9.566 30.32726,14.8259 33.14726,17.942 1.01739,1.1242 1.95382,3.8732 2.20308,6.4673 0.51366,5.3458 -1.86571,11.2942 -18.5607,46.4021 -12.46461,26.2117 -13.37,27.28741 -22.96824,27.28741 -4.45443,0 -6.47513,-0.46211 -8.44189,-1.93051 -4.2419,-3.167 -6.21387,-6.5532 -6.68763,-11.4838 -0.39727,-4.1345 0.14795,-6.0002 4.84492,-16.5788 2.91092,-6.556 5.09083,-12.1217 4.84423,-12.3683 -0.57336,-0.5733 -6.31706,1.3649 -38.60249,13.0267 l -26.34536,9.5162 -0.64386,6.6321 c -1.8265,18.81441 -8.33265,32.66061 -21.36204,45.46231 -7.34595,7.2175 -15.1869,12.1387 -25.70891,16.1355 l -7.7391,2.9397 0.002,16.9269 0.002,16.9269 4.1898,2.6469 c 5.35322,3.382 11.8974,10.6562 14.69252,16.3316 1.90117,3.8603 2.18147,5.8129 2.18147,15.197 0,10.2077 -0.14609,11.0326 -2.80895,15.8625 -3.82949,6.9459 -10.43148,13.3177 -17.41448,16.8071 -5.37243,2.6844 -6.56512,2.9105 -15.35702,2.9105 -8.7919,0 -9.98459,-0.2261 -15.35663,-2.9105 z m 32.9265,-131.7813 c 12.26536,-5.9173 20.82032,-17.2616 23.37447,-30.99571 3.15287,-16.9537 -6.77876,-35.5774 -23.33674,-43.7608 -6.1093,-3.0194 -8.06845,-3.5141 -15.28423,-3.859 -14.35901,-0.6866 -26.3247,4.5599 -35.17442,15.4226 -6.36041,7.8071 -8.30462,13.8937 -8.32753,26.0705 -0.0182,9.6661 0.16496,10.6886 2.97819,16.6276 4.13617,8.73181 11.18064,15.93661 19.42808,19.87021 8.26528,3.9422 9.20591,4.1188 20.64494,3.8777 8.43632,-0.1778 9.99019,-0.4999 15.69724,-3.2531 z"
        id="path4757"
        inkscape:connector-curvature="0"
        inkscape:export-xdpi="4.7399998"
        inkscape:export-ydpi="4.7399998" />
  </g>
  <metadata
      id="metadata7">
    <rdf:RDF>
      <cc:Work>
        <dc:format>image/svg+xml</dc:format>
        <dc:type
            rdf:resource="http://purl.org/dc/dcmitype/StillImage" />
        <cc:license
            rdf:resource="http://creativecommons.org/publicdomain/zero/1.0/" />
        <dc:publisher>
          <cc:Agent
              rdf:about="http://openclipart.org/">
            <dc:title>Openclipart</dc:title>
          </cc:Agent>
        </dc:publisher>
        <dc:title></dc:title>
      </cc:Work>
      <cc:License
          rdf:about="http://creativecommons.org/publicdomain/zero/1.0/">
        <cc:permits
            rdf:resource="http://creativecommons.org/ns#Reproduction" />
        <cc:permits
            rdf:resource="http://creativecommons.org/ns#Distribution" />
        <cc:permits
            rdf:resource="http://creativecommons.org/ns#DerivativeWorks" />
      </cc:License>
    </rdf:RDF>
  </metadata>
</svg>